<svg data-v-423bf9ae="" xmlns="http://www.w3.org/2000/svg" viewBox="0 0 513.0465333872089 60" class="font"><!----><!----><!----><g data-v-423bf9ae="" id="327fbdcb-66b2-4ddf-9cc6-f7ea37e67ce6" fill="black" transform="matrix(4.231311798095703,0,0,4.231311798095703,-2.9196226596832275,3.7235536575317383)"><path d="M4.45 2.90L4.45 2.90L4.45 2.90Q4.49 2.90 4.57 2.91L4.57 2.91L4.57 2.91Q4.65 2.91 4.66 2.91L4.66 2.91L4.66 4.68L4.35 4.68L4.35 4.68Q3.15 4.68 2.63 5.46L2.63 5.46L2.63 10.50L0.81 10.50L0.81 5.18L0.69 3.08L2.30 3.08L2.45 3.98L2.45 3.98Q3.19 2.90 4.45 2.90ZM12.38 6.61L12.38 7.46L7.48 7.46L7.48 7.46Q7.57 9.27 9.14 9.27L9.14 9.27L9.14 9.27Q9.84 9.27 10.25 8.93L10.25 8.93L10.25 8.93Q10.65 8.58 10.65 8.12L10.65 8.12L12.38 8.12L12.38 8.18L12.38 8.18Q12.38 9.23 11.52 9.95L11.52 9.95L11.52 9.95Q10.65 10.68 9.13 10.68L9.13 10.68L9.13 10.68Q7.41 10.68 6.53 9.66L6.53 9.66L6.53 9.66Q5.66 8.64 5.66 6.97L5.66 6.97L5.66 6.61L5.66 6.61Q5.66 4.94 6.52 3.92L6.52 3.92L6.52 3.92Q7.39 2.90 9.06 2.90L9.06 2.90L9.06 2.90Q10.70 2.90 11.54 3.92L11.54 3.92L11.54 3.92Q12.38 4.94 12.38 6.61L12.38 6.61ZM9.02 4.31L9.02 4.31L9.02 4.31Q7.59 4.31 7.48 6.12L7.48 6.12L10.54 6.12L10.54 6.12Q10.46 4.31 9.02 4.31ZM19.78 10.50L18.17 10.50L18.03 9.65L18.03 9.65Q17.14 10.68 15.61 10.68L15.61 10.68L15.61 10.68Q14.49 10.68 13.93 10.07L13.93 10.07L13.93 10.07Q13.37 9.45 13.37 8.50L13.37 8.50L13.37 8.36L13.37 8.36Q13.37 7.24 14.05 6.73L14.05 6.73L14.05 6.73Q14.73 6.22 15.96 6.03L15.96 6.03L17.85 5.74L17.85 5.71L17.85 5.71Q17.85 4.98 17.58 4.65L17.58 4.65L17.58 4.65Q17.30 4.31 16.62 4.31L16.62 4.31L16.62 4.31Q15.39 4.31 15.39 5.53L15.39 5.53L13.65 5.53L13.65 5.40L13.65 5.40Q13.65 4.33 14.34 3.61L14.34 3.61L14.34 3.61Q15.04 2.90 16.66 2.90L16.66 2.90L16.66 2.90Q18.31 2.90 18.99 3.61L18.99 3.61L18.99 3.61Q19.67 4.33 19.67 5.71L19.67 5.71L19.67 8.40L19.78 10.50ZM16.24 9.18L16.24 9.18L16.24 9.18Q17.28 9.18 17.85 8.41L17.85 8.41L17.85 6.85L16.30 7.10L16.30 7.10Q15.19 7.28 15.19 8.16L15.19 8.16L15.19 8.27L15.19 8.27Q15.19 8.65 15.46 8.92L15.46 8.92L15.46 8.92Q15.72 9.18 16.24 9.18ZM23.80 2.90L23.80 2.90L23.80 2.90Q25.03 2.90 25.76 3.77L25.76 3.77L25.76-0.70L27.58-0.70L27.58 8.40L27.69 10.50L26.08 10.50L25.93 9.58L25.93 9.58Q25.21 10.68 23.80 10.68L23.80 10.68L23.80 10.68Q22.36 10.68 21.69 9.70L21.69 9.70L21.69 9.70Q21.01 8.71 21.01 7.01L21.01 7.01L21.01 6.57L21.01 6.57Q21.01 4.86 21.68 3.88L21.68 3.88L21.68 3.88Q22.34 2.90 23.80 2.90ZM25.76 8.25L25.76 8.25L25.76 5.33L25.76 5.33Q25.24 4.48 24.30 4.48L24.30 4.48L24.30 4.48Q22.83 4.48 22.83 6.57L22.83 6.57L22.83 7.01L22.83 7.01Q22.83 9.09 24.30 9.09L24.30 9.09L24.30 9.09Q25.26 9.09 25.76 8.25ZM30.52 3.08L32.14 8.23L33.78 3.08L35.74 3.08L33.12 10.14L32.14 13.30L29.99 13.30L31.16 10.14L28.55 3.08L30.52 3.08ZM39.09 1.92L39.09 1.92L39.09 3.08L40.87 3.08L40.87 4.68L39.09 4.68L39.09 10.50L37.27 10.50L37.27 4.68L36.13 4.68L36.13 3.08L37.27 3.08L37.27 1.71L37.27 1.71Q37.27-0.88 39.86-0.88L39.86-0.88L39.86-0.88Q40.64-0.88 41.01-0.70L41.01-0.70L41.01 0.81L41.01 0.81Q40.78 0.70 40.29 0.70L40.29 0.70L40.29 0.70Q39.68 0.70 39.38 0.96L39.38 0.96L39.38 0.96Q39.09 1.22 39.09 1.92ZM47.81 9.68L47.81 9.68L47.81 9.68Q46.97 10.68 45.29 10.68L45.29 10.68L45.29 10.68Q43.61 10.68 42.77 9.68L42.77 9.68L42.77 9.68Q41.93 8.68 41.93 7.01L41.93 7.01L41.93 6.57L41.93 6.57Q41.93 4.89 42.77 3.89L42.77 3.89L42.77 3.89Q43.61 2.90 45.29 2.90L45.29 2.90L45.29 2.90Q46.97 2.90 47.81 3.89L47.81 3.89L47.81 3.89Q48.65 4.89 48.65 6.57L48.65 6.57L48.65 7.01L48.65 7.01Q48.65 8.68 47.81 9.68ZM43.75 7.01L43.75 7.01Q43.75 9.09 45.29 9.09L45.29 9.09L45.29 9.09Q46.83 9.09 46.83 7.01L46.83 7.01L46.83 6.57L46.83 6.57Q46.83 4.48 45.29 4.48L45.29 4.48L45.29 4.48Q43.75 4.48 43.75 6.57L43.75 6.57L43.75 7.01ZM53.62 2.90L53.62 2.90L53.62 2.90Q53.66 2.90 53.74 2.91L53.74 2.91L53.74 2.91Q53.82 2.91 53.83 2.91L53.83 2.91L53.83 4.68L53.52 4.68L53.52 4.68Q52.32 4.68 51.80 5.46L51.80 5.46L51.80 10.50L49.98 10.50L49.98 5.18L49.85 3.08L51.46 3.08L51.62 3.98L51.62 3.98Q52.36 2.90 53.62 2.90ZM60.82 10.50L59.57 5.00L58.32 10.50L56.01 10.50L54.64 3.08L56.42 3.08L57.22 8.54L58.48 3.08L60.66 3.08L61.92 8.54L62.72 3.08L64.51 3.08L63.13 10.50L60.82 10.50ZM65.63-0.70L67.45-0.70L67.45 3.84L67.45 3.84Q68.25 2.90 69.69 2.90L69.69 2.90L69.69 2.90Q70.84 2.90 71.41 3.61L71.41 3.61L71.41 3.61Q71.97 4.33 71.97 5.42L71.97 5.42L71.97 10.50L70.17 10.50L70.17 5.71L70.17 5.71Q70.17 5.15 69.87 4.82L69.87 4.82L69.87 4.82Q69.58 4.48 68.99 4.48L68.99 4.48L68.99 4.48Q67.97 4.48 67.45 5.33L67.45 5.33L67.45 10.50L65.63 10.50L65.63-0.70ZM79.59 10.50L77.98 10.50L77.84 9.65L77.84 9.65Q76.94 10.68 75.42 10.68L75.42 10.68L75.42 10.68Q74.30 10.68 73.74 10.07L73.74 10.07L73.74 10.07Q73.18 9.45 73.18 8.50L73.18 8.50L73.18 8.36L73.18 8.36Q73.18 7.24 73.86 6.73L73.86 6.73L73.86 6.73Q74.54 6.22 75.77 6.03L75.77 6.03L77.66 5.74L77.66 5.71L77.66 5.71Q77.66 4.98 77.38 4.65L77.38 4.65L77.38 4.65Q77.11 4.31 76.43 4.31L76.43 4.31L76.43 4.31Q75.19 4.31 75.19 5.53L75.19 5.53L73.46 5.53L73.46 5.40L73.46 5.40Q73.46 4.33 74.15 3.61L74.15 3.61L74.15 3.61Q74.84 2.90 76.47 2.90L76.47 2.90L76.47 2.90Q78.12 2.90 78.80 3.61L78.80 3.61L78.80 3.61Q79.48 4.33 79.48 5.71L79.48 5.71L79.48 8.40L79.59 10.50ZM76.05 9.18L76.05 9.18L76.05 9.18Q77.08 9.18 77.66 8.41L77.66 8.41L77.66 6.85L76.10 7.10L76.10 7.10Q75.00 7.28 75.00 8.16L75.00 8.16L75.00 8.27L75.00 8.27Q75.00 8.65 75.26 8.92L75.26 8.92L75.26 8.92Q75.53 9.18 76.05 9.18ZM83.51 0.98L83.51 3.08L85.57 3.08L85.57 4.68L83.51 4.68L83.51 7.88L83.51 7.88Q83.51 8.58 83.80 8.83L83.80 8.83L83.80 8.83Q84.10 9.09 84.71 9.09L84.71 9.09L84.71 9.09Q85.23 9.09 85.43 8.99L85.43 8.99L85.43 10.50L85.43 10.50Q85.06 10.68 84.28 10.68L84.28 10.68L84.28 10.68Q81.69 10.68 81.69 8.08L81.69 8.08L81.69 4.68L80.56 4.68L80.56 3.08L81.69 3.08L81.69 0.98L83.51 0.98ZM89.81 9.27L89.81 9.27L89.81 9.27Q90.44 9.27 90.76 9.02L90.76 9.02L90.76 9.02Q91.08 8.76 91.08 8.34L91.08 8.34L91.08 8.34Q91.08 7.87 90.78 7.67L90.78 7.67L90.78 7.67Q90.47 7.46 89.67 7.39L89.67 7.39L89.67 7.39Q88.13 7.27 87.47 6.80L87.47 6.80L87.47 6.80Q86.81 6.33 86.81 5.35L86.81 5.35L86.81 5.24L86.81 5.24Q86.81 4.09 87.63 3.49L87.63 3.49L87.63 3.49Q88.45 2.90 89.81 2.90L89.81 2.90L89.81 2.90Q92.82 2.90 92.82 5.43L92.82 5.43L92.82 5.50L91.04 5.50L91.04 5.50Q91.04 4.31 89.81 4.31L89.81 4.31L89.81 4.31Q89.24 4.31 88.92 4.55L88.92 4.55L88.92 4.55Q88.61 4.79 88.61 5.19L88.61 5.19L88.61 5.19Q88.61 5.63 88.89 5.83L88.89 5.83L88.89 5.83Q89.18 6.03 89.96 6.09L89.96 6.09L89.96 6.09Q91.48 6.22 92.19 6.66L92.19 6.66L92.19 6.66Q92.90 7.11 92.90 8.18L92.90 8.18L92.90 8.27L92.90 8.27Q92.90 9.39 92.11 10.04L92.11 10.04L92.11 10.04Q91.32 10.68 89.81 10.68L89.81 10.68L89.81 10.68Q88.28 10.68 87.50 10.00L87.50 10.00L87.50 10.00Q86.72 9.31 86.72 8.23L86.72 8.23L86.72 8.18L88.52 8.18L88.52 8.18Q88.52 9.27 89.81 9.27ZM100.65 5.42L100.65 10.50L98.84 10.50L98.84 5.71L98.84 5.71Q98.84 5.15 98.55 4.82L98.55 4.82L98.55 4.82Q98.25 4.48 97.66 4.48L97.66 4.48L97.66 4.48Q96.64 4.48 96.12 5.33L96.12 5.33L96.12 10.50L94.30 10.50L94.30 5.18L94.18 3.08L95.79 3.08L95.96 4.06L95.96 4.06Q96.75 2.90 98.36 2.90L98.36 2.90L98.36 2.90Q99.51 2.90 100.08 3.61L100.08 3.61L100.08 3.61Q100.65 4.33 100.65 5.42L100.65 5.42ZM108.60 6.61L108.60 7.46L103.70 7.46L103.70 7.46Q103.80 9.27 105.36 9.27L105.36 9.27L105.36 9.27Q106.06 9.27 106.47 8.93L106.47 8.93L106.47 8.93Q106.88 8.58 106.88 8.12L106.88 8.12L108.60 8.12L108.60 8.18L108.60 8.18Q108.60 9.23 107.74 9.95L107.74 9.95L107.74 9.95Q106.88 10.68 105.35 10.68L105.35 10.68L105.35 10.68Q103.63 10.68 102.75 9.66L102.75 9.66L102.75 9.66Q101.88 8.64 101.88 6.97L101.88 6.97L101.88 6.61L101.88 6.61Q101.88 4.94 102.75 3.92L102.75 3.92L102.75 3.92Q103.61 2.90 105.28 2.90L105.28 2.90L105.28 2.90Q106.92 2.90 107.76 3.92L107.76 3.92L107.76 3.92Q108.60 4.94 108.60 6.61L108.60 6.61ZM105.24 4.31L105.24 4.31L105.24 4.31Q103.81 4.31 103.70 6.12L103.70 6.12L106.76 6.12L106.76 6.12Q106.68 4.31 105.24 4.31ZM111.40 6.71L109.38 3.08L111.50 3.08L112.87 5.75L114.23 3.08L116.34 3.08L114.32 6.71L116.34 10.50L114.27 10.50L112.85 7.64L111.45 10.50L109.38 10.50L111.40 6.71ZM119.88 0.98L119.88 3.08L121.94 3.08L121.94 4.68L119.88 4.68L119.88 7.88L119.88 7.88Q119.88 8.58 120.18 8.83L120.18 8.83L120.18 8.83Q120.47 9.09 121.09 9.09L121.09 9.09L121.09 9.09Q121.60 9.09 121.80 8.99L121.80 8.99L121.80 10.50L121.80 10.50Q121.44 10.68 120.65 10.68L120.65 10.68L120.65 10.68Q118.06 10.68 118.06 8.08L118.06 8.08L118.06 4.68L116.93 4.68L116.93 3.08L118.06 3.08L118.06 0.98L119.88 0.98Z"></path></g><!----><!----></svg>