<svg data-v-fde0c5aa="" xmlns="http://www.w3.org/2000/svg" viewBox="0 0 300 300" class="iconAbove"><!----><defs data-v-fde0c5aa=""><!----></defs><rect data-v-fde0c5aa="" fill="#FF6906" x="0" y="0" width="300px" height="300px" class="logo-background-square"></rect><defs data-v-fde0c5aa=""><!----></defs><g data-v-fde0c5aa="" id="c52d70a1-1bfe-4dea-ba25-bbf19dedcc96" fill="#ffffff" transform="matrix(5.10487699508667,0,0,5.10487699508667,21.05080254450033,176.53525419528717)"><path d="M2.56 7.38L2.56 7.38Q2.91 6.73 3.60 6.40L3.60 6.40L3.60 6.40Q4.28 6.06 5.26 6.06L5.26 6.06L5.26 7.36L5.26 7.36Q5.15 7.35 4.96 7.35L4.96 7.35L4.96 7.35Q3.86 7.35 3.24 8.00L3.24 8.00L3.24 8.00Q2.62 8.65 2.62 9.86L2.62 9.86L2.62 13.55L1.27 13.55L1.27 6.13L2.56 6.13L2.56 7.38ZM13.72 9.88L13.72 9.88Q13.72 10.04 13.69 10.29L13.69 10.29L7.67 10.29L7.67 10.29Q7.80 11.27 8.53 11.87L8.53 11.87L8.53 11.87Q9.27 12.46 10.36 12.46L10.36 12.46L10.36 12.46Q11.69 12.46 12.50 11.56L12.50 11.56L13.24 12.43L13.24 12.43Q12.74 13.02 11.99 13.33L11.99 13.33L11.99 13.33Q11.24 13.64 10.32 13.64L10.32 13.64L10.32 13.64Q9.14 13.64 8.23 13.15L8.23 13.15L8.23 13.15Q7.32 12.67 6.83 11.80L6.83 11.80L6.83 11.80Q6.33 10.93 6.33 9.84L6.33 9.84L6.33 9.84Q6.33 8.76 6.81 7.90L6.81 7.90L6.81 7.90Q7.29 7.03 8.14 6.54L8.14 6.54L8.14 6.54Q8.99 6.06 10.05 6.06L10.05 6.06L10.05 6.06Q11.12 6.06 11.95 6.54L11.95 6.54L11.95 6.54Q12.78 7.03 13.25 7.90L13.25 7.90L13.25 7.90Q13.72 8.76 13.72 9.88L13.72 9.88ZM10.05 7.20L10.05 7.20Q9.09 7.20 8.44 7.78L8.44 7.78L8.44 7.78Q7.78 8.37 7.67 9.32L7.67 9.32L12.43 9.32L12.43 9.32Q12.32 8.39 11.67 7.79L11.67 7.79L11.67 7.79Q11.02 7.20 10.05 7.20L10.05 7.20ZM18.28 6.06L18.28 6.06Q19.82 6.06 20.64 6.82L20.64 6.82L20.64 6.82Q21.46 7.57 21.46 9.07L21.46 9.07L21.46 13.55L20.19 13.55L20.19 12.57L20.19 12.57Q19.85 13.09 19.23 13.36L19.23 13.36L19.23 13.36Q18.61 13.64 17.75 13.64L17.75 13.64L17.75 13.64Q16.51 13.64 15.76 13.03L15.76 13.03L15.76 13.03Q15.01 12.43 15.01 11.45L15.01 11.45L15.01 11.45Q15.01 10.47 15.72 9.88L15.72 9.88L15.72 9.88Q16.44 9.28 17.99 9.28L17.99 9.28L20.12 9.28L20.12 9.02L20.12 9.02Q20.12 8.15 19.61 7.69L19.61 7.69L19.61 7.69Q19.11 7.22 18.13 7.22L18.13 7.22L18.13 7.22Q17.47 7.22 16.84 7.44L16.84 7.44L16.84 7.44Q16.21 7.66 15.78 8.02L15.78 8.02L15.22 7.01L15.22 7.01Q15.79 6.55 16.59 6.31L16.59 6.31L16.59 6.31Q17.39 6.06 18.28 6.06L18.28 6.06ZM17.98 12.60L17.98 12.60Q18.75 12.60 19.31 12.26L19.31 12.26L19.31 12.26Q19.87 11.91 20.12 11.28L20.12 11.28L20.12 10.25L18.05 10.25L18.05 10.25Q16.34 10.25 16.34 11.40L16.34 11.40L16.34 11.40Q16.34 11.96 16.77 12.28L16.77 12.28L16.77 12.28Q17.21 12.60 17.98 12.60L17.98 12.60ZM29.61 3.16L30.95 3.16L30.95 13.55L29.67 13.55L29.67 12.38L29.67 12.38Q29.22 12.99 28.53 13.31L28.53 13.31L28.53 13.31Q27.85 13.64 27.02 13.64L27.02 13.64L27.02 13.64Q25.94 13.64 25.09 13.16L25.09 13.16L25.09 13.16Q24.23 12.68 23.75 11.82L23.75 11.82L23.75 11.82Q23.27 10.96 23.27 9.84L23.27 9.84L23.27 9.84Q23.27 8.72 23.75 7.87L23.75 7.87L23.75 7.87Q24.23 7.01 25.09 6.54L25.09 6.54L25.09 6.54Q25.94 6.06 27.02 6.06L27.02 6.06L27.02 6.06Q27.82 6.06 28.49 6.36L28.49 6.36L28.49 6.36Q29.16 6.66 29.61 7.25L29.61 7.25L29.61 3.16ZM27.13 12.46L27.13 12.46Q27.83 12.46 28.41 12.13L28.41 12.13L28.41 12.13Q28.98 11.80 29.30 11.21L29.30 11.21L29.30 11.21Q29.62 10.61 29.62 9.84L29.62 9.84L29.62 9.84Q29.62 9.07 29.30 8.48L29.30 8.48L29.30 8.48Q28.98 7.88 28.41 7.56L28.41 7.56L28.41 7.56Q27.83 7.24 27.13 7.24L27.13 7.24L27.13 7.24Q26.42 7.24 25.85 7.56L25.85 7.56L25.85 7.56Q25.28 7.88 24.95 8.48L24.95 8.48L24.95 8.48Q24.63 9.07 24.63 9.84L24.63 9.84L24.63 9.84Q24.63 10.61 24.95 11.21L24.95 11.21L24.95 11.21Q25.28 11.80 25.85 12.13L25.85 12.13L25.85 12.13Q26.42 12.46 27.13 12.46L27.13 12.46ZM38.75 6.13L40.07 6.13L36.47 14.29L36.47 14.29Q35.99 15.43 35.36 15.89L35.36 15.89L35.36 15.89Q34.72 16.35 33.82 16.35L33.82 16.35L33.82 16.35Q33.28 16.35 32.77 16.18L32.77 16.18L32.77 16.18Q32.26 16.00 31.92 15.67L31.92 15.67L32.49 14.66L32.49 14.66Q33.07 15.20 33.82 15.20L33.82 15.20L33.82 15.20Q34.31 15.20 34.64 14.95L34.64 14.95L34.64 14.95Q34.97 14.69 35.24 14.06L35.24 14.06L35.48 13.54L32.20 6.13L33.60 6.13L36.19 12.07L38.75 6.13ZM49.25 9.94L49.25 11.14L47.39 11.14L47.39 13.55L46.03 13.55L46.03 11.14L40.59 11.14L40.59 10.16L45.60 3.75L47.11 3.75L42.31 9.94L46.07 9.94L46.07 7.81L47.39 7.81L47.39 9.94L49.25 9.94Z"></path></g><defs data-v-fde0c5aa=""><!----></defs><g data-v-fde0c5aa="" id="21375781-62d3-46ac-9a61-e9752554b7d6" stroke="none" fill="#FFB31D" transform="matrix(1.6625514030456543,0,0,1.6625514030456543,67.7037037037037,25.037037037037024)"><path d="M27 69H9V51h18v18zm0 21H9V72h18v18zm21 0H30V72h18v18zm21-42H51V30h18v18zm0-21H51V9h18v18zm21 0H72V9h18v18zm0 21H72V30h18v18zM48 9H30v18h18V9zM27 9H9v39h18V9zm21 21H30v39h18V30zm3 21v38.7h39V51H51z"></path></g><!----></svg>